<?xml version="1.0" standalone="no"?>
<!DOCTYPE svg PUBLIC "-//W3C//DTD SVG 20010904//EN"
 "http://www.w3.org/TR/2001/REC-SVG-20010904/DTD/svg10.dtd">
<svg version="1.0" xmlns="http://www.w3.org/2000/svg"
 width="64.000000pt" height="64.000000pt" viewBox="0 0 64.000000 64.000000"
 preserveAspectRatio="xMidYMid meet">

<g transform="translate(0.000000,64.000000) scale(0.100000,-0.100000)"
fill="#000000" stroke="none">
<path d="M297 589 c-82 -19 -146 -68 -185 -143 -22 -42 -26 -64 -27 -126 0
-115 51 -197 152 -247 67 -32 164 -36 226 -9 56 25 117 85 143 141 28 60 32
140 8 149 -19 7 -32 0 -63 -37 -33 -39 -83 -59 -126 -51 -29 5 -36 2 -51 -21
-21 -33 -64 -55 -104 -55 -41 0 -35 22 9 31 33 7 81 44 81 63 0 5 -10 20 -22
34 -19 19 -23 35 -23 83 0 60 1 61 53 109 28 28 52 52 52 54 0 3 -7 12 -16 20
-17 17 -48 19 -107 5z m-67 -194 c17 -20 5 -45 -20 -45 -11 0 -23 7 -26 15 -6
15 11 45 26 45 4 0 13 -7 20 -15z"/>
</g>
</svg>
